<svg width="4274" height="4274" viewBox="0 0 4274 4274" fill="none" xmlns="http://www.w3.org/2000/svg">
<rect width="4274" height="4274" fill="#1C3BF1"/>
<path d="M1204.19 677.842C1204.19 645.708 1215.67 618.165 1238.62 595.212C1261.57 569.964 1290.27 557.34 1324.69 557.34H1403.88C1438.31 557.34 1467 569.964 1489.95 595.212C1512.91 618.165 1524.38 645.708 1524.38 677.842V1586.77C1524.38 1621.2 1519.79 1651.04 1510.61 1676.29C1503.73 1699.24 1493.4 1710.72 1479.63 1710.72C1465.85 1710.72 1454.38 1723.34 1445.2 1748.59C1436.02 1771.54 1431.42 1799.08 1431.42 1831.22V3597.43C1431.42 3629.57 1419.95 3657.11 1397 3680.06C1374.04 3705.31 1346.5 3717.93 1314.37 3717.93H1235.18C1200.75 3717.93 1172.06 3705.31 1149.11 3680.06C1126.15 3657.11 1114.68 3629.57 1114.68 3597.43V1831.22C1114.68 1799.08 1107.79 1771.54 1094.02 1748.59C1082.54 1723.34 1067.62 1710.72 1049.26 1710.72C1030.9 1710.72 1015.98 1699.24 1004.5 1676.29C993.027 1651.04 987.289 1621.2 987.289 1586.77V1511.03C987.289 1476.6 997.618 1447.91 1018.28 1424.95C1038.93 1399.71 1065.33 1387.08 1097.46 1387.08C1127.3 1387.08 1152.55 1375.61 1173.21 1352.65C1193.86 1329.7 1204.19 1302.16 1204.19 1270.02V677.842ZM2966.96 677.842C2966.96 645.708 2978.44 618.165 3001.39 595.212C3026.64 569.964 3055.33 557.34 3087.47 557.34H3166.65C3198.79 557.34 3226.33 569.964 3249.28 595.212C3274.53 618.165 3287.15 645.708 3287.15 677.842V970.489C3287.15 998.033 3274.53 1020.99 3249.28 1039.35C3226.33 1057.71 3198.79 1066.89 3166.65 1066.89H2746.62C2712.19 1066.89 2682.35 1071.48 2657.1 1080.66C2634.15 1089.84 2622.67 1103.62 2622.67 1121.98C2622.67 1135.75 2635.3 1148.37 2660.54 1159.85C2685.79 1169.03 2714.48 1173.62 2746.62 1173.62H3149.44C3183.87 1173.62 3213.71 1187.39 3238.95 1214.94C3264.2 1240.18 3276.83 1268.88 3276.83 1301.01V2488.81C3276.83 2523.24 3264.2 2553.08 3238.95 2578.33C3213.71 2601.28 3183.87 2612.76 3149.44 2612.76H3108.12C3075.99 2612.76 3048.45 2601.28 3025.49 2578.33C3002.54 2553.08 2991.06 2523.24 2991.06 2488.81V2423.4C2991.06 2391.26 2978.44 2363.72 2953.19 2340.77C2927.94 2317.82 2899.25 2306.34 2867.12 2306.34H2746.62C2714.48 2306.34 2685.79 2317.82 2660.54 2340.77C2635.3 2363.72 2622.67 2391.26 2622.67 2423.4V2492.26C2622.67 2526.69 2611.2 2556.52 2588.24 2581.77C2565.29 2604.73 2537.75 2616.2 2505.61 2616.2H2426.43C2394.29 2616.2 2365.6 2604.73 2340.35 2581.77C2317.4 2556.52 2305.92 2526.69 2305.92 2492.26V2423.4C2305.92 2391.26 2293.3 2363.72 2268.05 2340.77C2245.1 2317.82 2217.56 2306.34 2185.42 2306.34H2044.26C2012.13 2306.34 1983.44 2317.82 1958.19 2340.77C1932.94 2363.72 1920.32 2391.26 1920.32 2423.4V2492.26C1920.32 2526.69 1908.84 2556.52 1885.89 2581.77C1862.94 2604.73 1835.39 2616.2 1803.26 2616.2H1755.06C1722.92 2616.2 1694.23 2604.73 1668.99 2581.77C1643.74 2556.52 1631.11 2526.69 1631.11 2492.26V1301.01C1631.11 1268.88 1643.74 1240.18 1668.99 1214.94C1694.23 1187.39 1722.92 1173.62 1755.06 1173.62H2185.42C2217.56 1173.62 2245.1 1169.03 2268.05 1159.85C2293.3 1148.37 2305.92 1135.75 2305.92 1121.98C2305.92 1103.62 2294.45 1089.84 2271.5 1080.66C2248.54 1071.48 2219.85 1066.89 2185.42 1066.89H1755.06C1722.92 1066.89 1694.23 1055.41 1668.99 1032.46C1643.74 1007.21 1631.11 978.523 1631.11 946.389V929.174C1631.11 894.745 1642.59 866.054 1665.54 843.102C1690.79 820.149 1720.63 808.672 1755.06 808.672H2185.42C2217.56 808.672 2245.1 797.196 2268.05 774.243C2293.3 751.291 2305.92 723.747 2305.92 691.613V674.399C2305.92 642.265 2317.4 614.722 2340.35 591.769C2365.6 568.816 2394.29 557.34 2426.43 557.34H2505.61C2537.75 557.34 2565.29 568.816 2588.24 591.769C2611.2 614.722 2622.67 642.265 2622.67 674.399V691.613C2622.67 723.747 2635.3 751.291 2660.54 774.243C2685.79 797.196 2714.48 808.672 2746.62 808.672H2843.02C2877.45 808.672 2906.14 797.196 2929.09 774.243C2954.34 751.291 2966.96 723.747 2966.96 691.613V677.842ZM2044.26 1431.84C2012.13 1431.84 1983.44 1441.02 1958.19 1459.38C1932.94 1477.75 1920.32 1499.55 1920.32 1524.8C1920.32 1552.34 1931.79 1575.29 1954.75 1593.66C1980 1612.02 2009.83 1621.2 2044.26 1621.2H2185.42C2217.56 1621.2 2245.1 1612.02 2268.05 1593.66C2293.3 1575.29 2305.92 1552.34 2305.92 1524.8C2305.92 1499.55 2293.3 1477.75 2268.05 1459.38C2245.1 1441.02 2217.56 1431.84 2185.42 1431.84H2044.26ZM2746.62 1431.84C2714.48 1431.84 2685.79 1441.02 2660.54 1459.38C2635.3 1477.75 2622.67 1499.55 2622.67 1524.8C2622.67 1552.34 2634.15 1575.29 2657.1 1593.66C2682.35 1612.02 2712.19 1621.2 2746.62 1621.2H2867.12C2901.55 1621.2 2930.24 1612.02 2953.19 1593.66C2978.44 1575.29 2991.06 1552.34 2991.06 1524.8C2991.06 1499.55 2978.44 1477.75 2953.19 1459.38C2927.94 1441.02 2899.25 1431.84 2867.12 1431.84H2746.62ZM2185.42 2048.12C2217.56 2048.12 2245.1 2037.79 2268.05 2017.14C2293.3 1996.48 2305.92 1972.38 2305.92 1944.83C2305.92 1919.59 2293.3 1896.63 2268.05 1875.98C2245.1 1855.32 2217.56 1844.99 2185.42 1844.99H2044.26C2012.13 1844.99 1983.44 1855.32 1958.19 1875.98C1932.94 1896.63 1920.32 1919.59 1920.32 1944.83C1920.32 1972.38 1932.94 1996.48 1958.19 2017.14C1983.44 2037.79 2012.13 2048.12 2044.26 2048.12H2185.42ZM2867.12 2048.12C2899.25 2048.12 2927.94 2037.79 2953.19 2017.14C2978.44 1996.48 2991.06 1972.38 2991.06 1944.83C2991.06 1919.59 2978.44 1896.63 2953.19 1875.98C2927.94 1855.32 2899.25 1844.99 2867.12 1844.99H2746.62C2714.48 1844.99 2685.79 1855.32 2660.54 1875.98C2635.3 1896.63 2622.67 1919.59 2622.67 1944.83C2622.67 1972.38 2635.3 1996.48 2660.54 2017.14C2685.79 2037.79 2714.48 2048.12 2746.62 2048.12H2867.12ZM3066.81 2664.4C3098.94 2664.4 3126.49 2673.58 3149.44 2691.95C3174.69 2710.31 3187.31 2730.97 3187.31 2753.92C3187.31 2779.17 3191.9 2802.12 3201.08 2822.78C3212.56 2841.14 3225.18 2850.32 3238.95 2850.32C3252.73 2850.32 3264.2 2861.8 3273.38 2884.75C3282.56 2907.7 3287.15 2935.25 3287.15 2967.38V2981.15C3287.15 3015.58 3282.56 3044.27 3273.38 3067.22C3264.2 3090.18 3252.73 3101.65 3238.95 3101.65C3225.18 3101.65 3212.56 3114.28 3201.08 3139.52C3191.9 3162.48 3187.31 3191.17 3187.31 3225.6V3607.76C3187.31 3637.6 3174.69 3662.85 3149.44 3683.5C3126.49 3706.46 3098.94 3717.93 3066.81 3717.93H2612.34C2580.21 3717.93 2551.52 3705.31 2526.27 3680.06C2501.02 3657.11 2488.4 3629.57 2488.4 3597.43V3545.79C2488.4 3513.65 2501.02 3486.11 2526.27 3463.16C2551.52 3440.21 2580.21 3428.73 2612.34 3428.73H2746.62C2781.05 3428.73 2809.74 3417.25 2832.69 3394.3C2857.94 3371.35 2870.56 3342.66 2870.56 3308.23V3225.6C2870.56 3191.17 2857.94 3162.48 2832.69 3139.52C2809.74 3114.28 2781.05 3101.65 2746.62 3101.65H1755.06C1720.63 3101.65 1690.79 3090.18 1665.54 3067.22C1642.59 3044.27 1631.11 3015.58 1631.11 2981.15V2967.38C1631.11 2935.25 1643.74 2907.7 1668.99 2884.75C1694.23 2861.8 1722.92 2850.32 1755.06 2850.32H2746.62C2781.05 2850.32 2809.74 2841.14 2832.69 2822.78C2857.94 2802.12 2870.56 2779.17 2870.56 2753.92C2870.56 2730.97 2882.04 2710.31 2904.99 2691.95C2930.24 2673.58 2960.08 2664.4 2994.51 2664.4H3066.81ZM1823.92 3604.32C1787.19 3604.32 1756.21 3592.84 1730.96 3569.89C1708.01 3546.94 1696.53 3519.39 1696.53 3487.26V3280.68C1696.53 3255.44 1708.01 3233.63 1730.96 3215.27C1756.21 3196.91 1787.19 3187.73 1823.92 3187.73H1896.22C1930.65 3187.73 1959.34 3193.46 1982.29 3204.94C2005.24 3216.42 2016.72 3231.34 2016.72 3249.7C2016.72 3270.36 2028.2 3286.42 2051.15 3297.9C2074.1 3309.38 2102.79 3315.11 2137.22 3315.11H2295.6C2330.03 3315.11 2358.72 3326.59 2381.67 3349.54C2406.92 3372.5 2419.54 3401.19 2419.54 3435.62V3483.82C2419.54 3515.95 2406.92 3543.49 2381.67 3566.45C2358.72 3591.69 2330.03 3604.32 2295.6 3604.32H1823.92Z" fill="white"/>
</svg>
